<?xml version="1.0" standalone="no"?>
<!DOCTYPE svg PUBLIC "-//W3C//DTD SVG 1.1//EN" "http://www.w3.org/Graphics/SVG/1.1/DTD/svg11.dtd" >
<svg xmlns="http://www.w3.org/2000/svg">
<metadata></metadata>
<defs>
<font id="maggie_mooregular" horiz-adv-x="2048" >
<font-face units-per-em="2048" ascent="1905" descent="-143" />
<missing-glyph horiz-adv-x="636" />
<glyph />
<glyph />
<glyph unicode="&#xd;" />
<glyph unicode=" "  horiz-adv-x="636" />
<glyph unicode="&#x09;" horiz-adv-x="636" />
<glyph unicode="&#xa0;" horiz-adv-x="636" />
<glyph unicode="!" horiz-adv-x="342" d="M41 1542v43q19 3 54 10t60.5 12t34.5 5q22 0 38.5 -21t25 -57t13 -77t5 -88t0 -83t-2 -69t-1.5 -39v-580q0 -48 -42.5 -80.5t-102.5 -25.5q-9 44 -45.5 491t-36.5 559zM66 111q0 50 39.5 96.5t84.5 46.5q61 0 94 -45t33 -94q0 -68 -31.5 -103t-86.5 -35t-94 43.5 t-39 90.5z" />
<glyph unicode="&#x22;" horiz-adv-x="489" d="M47 1341q4 33 4 81.5t-2 93t-2 45.5v55q-1 112 11 142t73 30q11 0 28 -5t25 -5l25 -361q0 -38 -27.5 -58t-66.5 -18h-68zM283 1458q0 247 15.5 296.5t92.5 49.5q17 0 53 -18v-391q-13 -4 -60 -21.5t-60 -17.5q-19 0 -29.5 25.5t-10.5 50.5z" />
<glyph unicode="#" />
<glyph unicode="$" />
<glyph unicode="%" />
<glyph unicode="&#x26;" />
<glyph unicode="'" horiz-adv-x="270" d="M37 1317v221q0 68 16 182q21 12 61 23.5t56 11.5q18 0 31 -17t20.5 -48t12 -63t6 -73.5t1.5 -68t-0.5 -57t-0.5 -31.5q0 -27 -26.5 -46.5t-53.5 -26.5t-47 -7h-76z" />
<glyph unicode="(" />
<glyph unicode=")" />
<glyph unicode="*" />
<glyph unicode="+" />
<glyph unicode="," horiz-adv-x="311" d="M0 -86q12 62 19.5 124.5t8.5 97t6.5 68.5t14.5 49.5t32 29t59 17t96 3.5q16 0 31.5 -11.5t15.5 -25.5q0 -8 -19 -75.5t-44 -160.5t-36 -149q-12 -4 -32 -4.5t-44.5 1t-27.5 1.5q-13 0 -39.5 12.5t-40.5 22.5z" />
<glyph unicode="-" />
<glyph unicode="." />
<glyph unicode="/" />
<glyph unicode="0" horiz-adv-x="786" d="M28 732q0 126 1 140q3 65 8 121t19.5 139t35 149.5t57 138t83.5 119.5t117 79t155 31q67 0 118 -45.5t78.5 -119t46.5 -167t23 -189.5t7 -187t-1 -159v-65q0 -744 -366 -744q-68 0 -122.5 18.5t-90 48.5t-62.5 75.5t-41.5 90t-25.5 102.5t-15.5 103.5t-11 101.5t-12.5 89 q-1 4 -1 130zM297 815q9 -36 16 -106.5t13.5 -135t17 -127.5t31 -101t51.5 -38q106 0 106 393q0 138 -8 359q-1 33 -5.5 83.5t-14 115.5t-27 110t-39.5 45q-33 0 -59.5 -46t-39.5 -101t-25 -113.5t-17 -69.5q6 -6 6 -42.5t-6 -225.5z" />
<glyph unicode="1" horiz-adv-x="694" d="M23 1520q441 116 479 116q10 0 25 -5t22 -5q10 -47 18 -128t8 -105l-40 -936q0 -172 8 -252q7 -2 27.5 -8.5t28 -9.5t22 -13.5t20.5 -23t11 -35t5 -52.5q0 -8 -5 -35t-5 -40l-430 -19q-9 0 -31 -8t-32 -8q-20 0 -34.5 22.5t-20.5 54.5t-8.5 53.5t-2.5 33.5q0 11 4 24 t4 15q55 13 123 0l64 1101l-7 46q-126 -107 -151 -107q-24 0 -46 72t-37.5 158t-18.5 94z" />
<glyph unicode="2" horiz-adv-x="786" d="M0 1010q11 76 36 156.5t68.5 164.5t98.5 149t131.5 106.5t161.5 41.5q71 0 126 -33.5t85.5 -86.5t45.5 -111t15 -115q0 -86 -41.5 -231t-104.5 -299.5t-113 -266t-91 -194.5l3 -3t2 -1.5t2.5 -0.5h3t5.5 0.5t8 0.5q42 0 119.5 25.5t112.5 47.5q29 -22 39.5 -65 t12.5 -101.5t9 -84.5q-3 -1 -96 -27.5t-131.5 -36t-106.5 -22.5t-110 -13h-119q-42 0 -94 25q-12 15 27 115.5t103.5 248t130.5 307.5t113.5 323t47.5 265q0 14 -9.5 48.5t-21.5 58.5q-28 -9 -57.5 -44.5t-56 -90t-47 -104.5t-44.5 -112t-35 -87l-43 6q-33 7 -78 8.5 t-69.5 7t-38.5 25.5z" />
<glyph unicode="3" horiz-adv-x="872" d="M10 463q23 14 66.5 43t77 50.5t55.5 31.5q6 -8 21 -58.5t32 -100.5t53 -92t80 -42q50 0 89.5 36t60.5 85.5t35 109t18 98t4 60.5q0 21 -3.5 56.5t-13.5 90.5t-34 92.5t-59 37.5q-7 0 -14 -4.5t-21 -4.5q-26 0 -46 53.5t-20 69.5q0 8 27.5 44.5t67.5 88t59 80.5 q-64 23 -117.5 23.5t-85.5 -11.5t-78 -25t-88 -13q-16 0 -26 17t-13.5 43.5t-4.5 40.5t-1 26q0 74 27 113.5t78.5 50t106.5 9.5t132.5 0.5t134.5 16.5q5 0 13.5 4t19.5 4q36 0 60.5 -31.5t34.5 -80.5t14 -85t4 -67q0 -8 -35 -47.5t-86 -95t-74 -84.5q131 -52 204 -170 t73 -238q0 -68 -20 -145.5t-60.5 -154.5t-96.5 -139.5t-135 -101t-168 -38.5q-140 0 -238 95.5t-110 258.5z" />
<glyph unicode="4" horiz-adv-x="780" d="M20 662q50 245 50 434q0 17 0.5 49t0 44t-2 39.5t-5 52t-10 64.5t-16.5 93q24 12 79 27.5t70 15.5q26 0 47 -22t32.5 -52.5t19 -67t10 -60.5t2.5 -38q0 -73 -13 -135t-35.5 -136.5t-33.5 -133.5q21 -8 55 -9.5t65.5 1.5t75.5 6.5t74 3.5q10 183 14 299t3 147.5t0 71.5 t8 106q74 19 129 19q23 0 38 -27t20.5 -71t7 -95.5t-1.5 -105.5t-6.5 -97t-6.5 -73l-4 -31v-129q1 -6 22.5 -2t24.5 4q12 -13 19.5 -58t7.5 -75v-59q-32 -20 -76 6q-1 -37 -5.5 -144.5t-6 -176.5t3 -166t18.5 -169q-24 -8 -78 -17t-71 -9h-43l-19 620q-13 40 0 80 q-91 12 -167 0.5t-157 -31.5t-89 -20q-11 0 -29.5 13t-20.5 14z" />
<glyph unicode="5" horiz-adv-x="897" d="M0 86q1 2 10 35.5t19.5 67t25 62t27.5 28.5q3 0 16 -13t31.5 -28t55.5 -28t81 -13h86q61 0 111.5 37t79 91.5t44 107.5t15.5 93q0 48 -14.5 102t-44.5 107t-70.5 96t-97 70t-119.5 27q-67 0 -180 -49q-12 24 -23.5 212.5t-11.5 286.5q0 39 39.5 69t95 46.5t123 27.5 t114.5 14t79 3q88 0 110 -37v-182q-35 8 -86 8q-22 0 -126.5 -19.5t-117.5 -23.5q3 -104 15 -170q129 -30 234.5 -78.5t187 -115.5t126 -157t44.5 -196q0 -58 -17 -127t-54 -141t-88 -130.5t-125.5 -96t-158.5 -37.5q-8 0 -38 -8.5t-42 -8.5h-163q-33 0 -103 24t-90 44z" />
<glyph unicode="6" horiz-adv-x="937" d="M35 424q0 52 29.5 183t79 290t105.5 308t117.5 249t106.5 100q44 0 121 -92.5t90 -124.5q-26 -11 -55.5 -41t-53 -64.5t-51.5 -86t-45 -86t-40.5 -85t-30.5 -65.5q16 0 50.5 5.5t43.5 5.5q66 0 137.5 -26.5t132 -71t100 -110.5t39.5 -137q0 -49 -10.5 -104.5t-31 -116 t-56 -115.5t-80.5 -99t-109.5 -70.5t-138.5 -26.5q-9 0 -36 -4t-37 -4q-189 0 -283 104.5t-94 284.5zM279 477q0 -95 46 -155t136 -60q98 0 156.5 76t58.5 184q0 67 -43 106.5t-127 39.5q-82 0 -154.5 -55.5t-72.5 -135.5z" />
<glyph unicode="7" horiz-adv-x="755" d="M16 1176v221q30 9 279.5 38t294.5 29h131q7 -19 17 -72t10 -75q0 -52 -29.5 -120.5t-71.5 -149t-83.5 -179.5t-71 -246t-29.5 -315v-289q-20 -4 -73 -12.5t-85.5 -15t-56.5 -13.5q-20 12 -36.5 54.5t-16.5 120.5q0 235 92.5 532.5t199.5 499.5q-4 4 -8.5 5t-11.5 0t-8 -1 l-389 -66q-11 -2 -32.5 19.5t-21.5 34.5z" />
<glyph unicode="8" horiz-adv-x="995" d="M27 330q0 77 20 158t48.5 144t57 114.5t48.5 83.5t20 36t-18.5 38t-37 90t-18.5 116q0 86 31 167.5t85 145t136 102t176 38.5q150 0 243 -106t93 -257q0 -79 -27.5 -169t-76.5 -148q170 -208 170 -443q0 -87 -39 -164t-100.5 -130.5t-137 -92.5t-150 -57.5t-138.5 -18.5 q-72 0 -138.5 21t-122.5 62t-90 111t-34 159zM287 379q0 -71 48 -126.5t130 -55.5q106 0 187 77t81 191q0 35 -25.5 95t-68 111t-80.5 54q-100 0 -139 -4q-61 -55 -97 -164.5t-36 -177.5zM383 1130q0 -13 11 -49t37.5 -74t57.5 -38q72 0 137.5 77.5t65.5 153.5q0 54 -39 103 t-98 49q-44 0 -78.5 -22t-54 -57t-29.5 -72t-10 -71z" />
<glyph unicode="9" horiz-adv-x="925" d="M25 1171q0 189 122 312t314 123q73 0 133 -16t102.5 -41.5t76 -66t54 -80.5t34.5 -93.5t20 -97.5t8 -100.5t1.5 -93t-2 -85t-1.5 -68.5v-774q0 -133 -66 -133q-9 0 -24 -4t-23 -4h-162q-19 98 -19.5 188t8.5 191.5t9 160.5v218q0 7 3 27.5t3.5 32t-2.5 19.5 q-9 -5 -20.5 -12.5t-15.5 -9.5t-10 -5.5t-12.5 -3.5t-14 -0.5t-23.5 -0.5q-10 0 -61.5 -8.5t-61.5 -8.5q-78 0 -142 27.5t-105.5 72t-70 102.5t-40.5 116t-12 116zM350 1212q0 -16 8 -52t22 -79.5t40 -75.5t57 -32q32 0 66.5 84.5t34.5 105.5q0 30 -11.5 73t-43 84.5 t-74.5 41.5q-35 0 -59 -30t-32 -61.5t-8 -58.5z" />
<glyph unicode=":" />
<glyph unicode=";" />
<glyph unicode="&#x3c;" />
<glyph unicode="=" />
<glyph unicode="&#x3e;" />
<glyph unicode="?" horiz-adv-x="737" d="M12 1380q14 16 48 54t48 53t43 45.5t45 43.5t42.5 35t46.5 31.5t46 21t51.5 15.5t53.5 4q75 0 136 -41.5t95 -103t52 -123.5t18 -112q0 -72 -16.5 -120t-43 -71.5t-59 -40t-64.5 -36t-58.5 -48.5t-43 -88t-16.5 -145v-222q-54 -40 -149 -45l-23 478q0 63 -14 131 q9 7 59.5 25t100 37.5t90.5 55t41 76.5q0 42 -37.5 79.5t-79.5 37.5q-39 0 -86.5 -33t-109.5 -93t-83 -77q-11 20 -64 87t-69 89zM217 139q0 55 38 105.5t95 50.5q56 0 103 -43t47 -100q0 -60 -52.5 -109t-109.5 -49q-121 0 -121 145z" />
<glyph unicode="@" />
<glyph unicode="A" horiz-adv-x="1167" d="M49 -25q3 14 21.5 127t44 255.5t61.5 322.5t81 347t95 309t110.5 227.5t121.5 85.5q60 0 114 -40t92.5 -104t71 -141.5t53 -155.5t34.5 -142t20 -104l6 -40q15 -82 56.5 -298.5t71.5 -377t30 -170.5v-35q-80 -34 -176.5 -47.5t-114.5 -18.5q-18 102 -27 327t-29 331 q-11 -13 -135 -72t-164 -59q-20 0 -74 -11t-67 -26q-15 -80 -92 -473q-26 0 -205 -17zM418 772h76h1q23 0 119 36q100 37 144 62q-11 96 -27 185.5t-47.5 180.5t-67.5 112q-49 -70 -83 -151t-48.5 -136.5t-34.5 -148.5t-32 -140z" />
<glyph unicode="B" horiz-adv-x="1064" d="M-2 1614q1 0 30.5 9t43 13t49.5 13.5t60 14.5t63.5 12.5t71.5 11.5t72 7t77 3q116 0 198 -74t82 -186q0 -197 -155 -305q147 -59 234.5 -110t138 -114.5t67.5 -133t17 -175.5q0 -78 -22.5 -159.5t-68.5 -157.5t-108.5 -136t-149.5 -96.5t-184 -36.5q-9 0 -55.5 -8 t-55.5 -8q-8 0 -71.5 11t-150.5 26t-134 22q11 53 33 344.5t22 487.5q0 181 -23 353.5t-45 258.5t-36 113zM315 1509q29 -148 45 -258q37 9 85.5 59.5t48.5 102.5q0 17 -22.5 56.5t-47.5 39.5h-109zM332 252q107 -19 137 -19q85 0 154.5 60t104 142t34.5 161q0 61 -21 111 t-54.5 82.5t-77.5 54.5t-88.5 31.5t-88.5 9.5q-34 0 -53 -19q-8 -276 -47 -614z" />
<glyph unicode="C" horiz-adv-x="927" d="M20 633q0 46 4 110t17.5 159t33.5 186.5t56.5 186t83 165t116 115t152.5 44.5q30 0 87 -19.5t115.5 -49.5t102 -73.5t43.5 -84.5q0 -17 -48.5 -152.5t-63.5 -160.5q-9 9 -31 50t-44.5 81.5t-54.5 74t-61 33.5q-49 0 -87.5 -47t-61 -124.5t-37.5 -158t-21 -167t-8 -130 t-2 -67.5q0 -17 7 -60.5t20.5 -99t40 -96.5t59.5 -41h56q44 0 94.5 53t81 108.5t35.5 80.5h36q3 -4 47 -58.5t80.5 -104t36.5 -62.5q0 -55 -48.5 -111t-111.5 -93q-63 -36 -123 -58q-45 -16 -69 -17q-8 0 -14 2q-18 0 -47.5 -4t-36.5 -4q-79 0 -144 21.5t-109 56.5t-78 85.5 t-53 102.5t-31 113t-16 111.5t-4 103.5z" />
<glyph unicode="D" horiz-adv-x="1044" d="M20 1532q47 17 129.5 34t133.5 17q116 0 223.5 -25t202.5 -77.5t165.5 -128t111 -182.5t40.5 -234q0 -457 -237.5 -693.5t-704.5 -236.5q-9 0 -16.5 2.5t-11.5 5.5l-3 2l6 1043zM322 1360l32 -1053q125 79 209 155t132 153.5t67.5 153.5t19.5 167q0 43 -8.5 95t-31.5 112 t-56.5 108.5t-89 80.5t-123.5 32q-9 0 -66 -2t-85 -2z" />
<glyph unicode="E" horiz-adv-x="921" d="M25 340l81 848q0 95 24 164.5t65 112.5t106.5 69t137.5 35.5t167 9.5q46 0 213 -18q27 -171 27 -270q0 -24 -2 -44q-24 2 -79 10t-99 14.5t-52 6.5q-50 0 -85 -6t-61 -13.5t-42.5 -31.5t-26.5 -42.5t-15 -64.5t-7 -80t-4 -106l2 -2q4 -4 12 -4h10q29 0 291 57 q3 -3 8 -39.5t10.5 -103.5t8.5 -140q-26 -16 -72 -24t-76.5 -9t-91.5 -1q-9 0 -30 4t-31 4q-27 0 -44 -11t-24.5 -33.5t-9.5 -43t-2 -53.5v-7q0 -32 0.5 -52.5t6 -58.5t15 -61.5t29.5 -42t49 -18.5q74 0 150 18.5t131.5 37t77.5 18.5q23 0 41 -22t28.5 -58.5t17 -73 t9.5 -77.5t3.5 -58.5t0.5 -28.5q-31 -14 -103 -31.5t-88 -17.5q-9 0 -75.5 -8t-75.5 -8h-119q-407 0 -407 354z" />
<glyph unicode="F" horiz-adv-x="829" d="M48 285v6q0 23 4 73q4 57 3 136v622q0 215 121 338t365 123q49 0 133 -17.5t145 -39.5q-1 -12 -9 -62q-7 -44 -6 -79v-9q1 -38 15 -69h-51l-29 15q-29 14 -79 28t-103 14q-243 0 -264 -305l8 -78q77 1 233 25q144 22 244 22h17q-3 -46 -16 -153t-17 -152 q-53 -6 -146 -17.5t-171 -19.5t-146 -12q-7 -98 -10 -334.5t-8 -282.5q-21 -4 -88.5 -19.5t-110.5 -23.5q-20 136 -27 192.5t-7 78.5z" />
<glyph unicode="G" horiz-adv-x="1163" d="M33 498q0 49 4.5 121t20 181.5t39 216t66.5 217.5t98.5 193.5t138.5 135.5t182 53q282 0 442 -305q-33 -54 -91 -129.5t-106 -126.5h-39q-3 9 -13.5 37t-32.5 74.5t-47 87.5t-58 71.5t-64 30.5q-36 0 -69.5 -65.5t-56 -158t-40 -190.5t-26 -163.5t-8.5 -76.5v-311 q0 -80 64.5 -151.5t140.5 -71.5q38 0 68 14t47.5 38.5t29.5 51t17 59t6.5 53t1.5 42.5v37q-4 1 -10 1q-18 0 -56 -12q-50 -16 -68 -16q-24 0 -45 61.5t-34 135.5t-15 78l539 221h53q40 -175 82 -287q-2 -16 -20 -27t-40 -16.5t-49.5 -16t-44.5 -24.5q18 -89 18 -163 q0 -19 -1 -37q-6 -88 -43 -155t-89.5 -114.5t-123.5 -77t-144.5 -43.5t-152.5 -14q-111 0 -195 28t-136 75t-84 117.5t-44 147t-12 173.5z" />
<glyph unicode="H" horiz-adv-x="1163" d="M16 1542q0 22 65 37.5t119.5 20t75.5 4.5q20 0 34 -22.5t23 -64.5t14 -89t7 -110.5t2.5 -113t0.5 -112t1 -93.5q2 -2 3.5 -5.5t2.5 -5t4.5 -2.5t10.5 -1t89 8t93 8q19 0 110.5 -17t135.5 -32q4 22 7.5 52.5t6 59.5t2.5 32v497q32 -3 57 -3t59 2.5t38 2.5q15 0 51 -6.5 t57 -13.5q23 -215 29.5 -760.5t15.5 -763.5q-40 -11 -79 -20t-99 -22t-104 -23q-20 41 -30.5 124t-11.5 141.5t-1 156.5v30v305q-23 9 -51.5 15t-49.5 9.5t-59.5 5t-53 1.5h-58.5h-50q-2 0 -32 -4.5t-57.5 -4.5t-37.5 9l-22 -647q0 -103 -27 -141h-266v51q0 19 16.5 283 t16.5 393q0 335 -11 536q-3 38 -14.5 107t-22 124t-10.5 62z" />
<glyph unicode="I" horiz-adv-x="364" d="M40 610q0 52 3 176.5t11 316.5t22 488q33 13 110 13h18.5h21.5t21.5 -1t22.5 -3.5t19 -6t18 -10.5t13 -15.5t9.5 -21t2.5 -28.5q-1 -49 -3 -122q-3 -95 -3 -125v-9q0 -22 6 -27q-4 -7 -8.5 -24t-8.5 -23q0 -1022 -2 -1192q-27 -27 -61 -27q-12 0 -32 7.5t-30 7.5 q-15 0 -122 -31q-10 32 -18.5 175.5t-8.5 182.5q0 55 -1 151q-1 64 -1 109q1 21 1 39z" />
<glyph unicode="J" horiz-adv-x="706" d="M18 649q0 28 31 45.5t72 22.5q37 5 71 5h6q37 -1 52 -5q23 -64 34 -162t24.5 -175.5t47.5 -121.5q11 13 18 30.5t9 43t3 42.5t0 49.5t-1 43.5q0 188 -22.5 442.5t-45 441.5t-22.5 212q0 27 14 46t34.5 27.5t51 13t57 4.5t59.5 0.5t52 2.5q22 -112 37 -275.5t28.5 -373.5 t24.5 -322q0 -82 1 -143t2.5 -90.5t2.5 -47t2 -25t1 -11.5q0 -57 -7 -108.5t-27 -105.5t-51.5 -93t-85 -64t-122.5 -25q-66 0 -122 25t-95 68.5t-67 102.5t-42 125.5t-16 139.5q-2 74 -4 123.5t-3.5 68t-1.5 23.5z" />
<glyph unicode="K" horiz-adv-x="927" d="M25 1554v52q26 9 79 17.5t70 8.5q67 0 102 -29.5t42 -82.5q5 -41 5 -85v-25q-1 -38 -1 -81v-45q1 -70 16 -117q55 69 88.5 141t41.5 120.5t19.5 93t28 71t61.5 41.5t125 15q44 0 69.5 -22t26.5 -64q0 -118 -84.5 -304t-185.5 -305q92 -74 148.5 -172.5t81 -196 t43.5 -192.5t56 -189t99 -159v-61q-26 11 -70 12h-19q-39 0 -94.5 -3t-94.5 -3h-19q-42 30 -69 92.5t-44 140t-36.5 159t-58.5 167.5t-97 147q0 -80 -10 -302q-6 -139 -7 -252q0 -68 3 -126q-17 -3 -54 -12t-66.5 -15.5t-39.5 -6.5h-114q-20 9 -20 61q0 3 -1 6q0 50 9 118 q9 72 9 87v852q0 46 -19 239.5t-19 208.5z" />
<glyph unicode="L" horiz-adv-x="825" d="M31 354l18 1231q39 -3 78 -3t92 2.5t55 2.5q14 0 66 -26l-8 -1076q2 -61 14.5 -102.5t29.5 -63.5t47 -33.5t53 -13.5t63 -2q16 0 90 13.5t123 27.5q13 -20 28 -115t15 -116q0 -36 -56.5 -59.5t-145 -31.5t-131.5 -10t-81 -2q-9 0 -26.5 8.5t-26.5 8.5q-123 0 -203 104 t-94 256z" />
<glyph unicode="M" horiz-adv-x="1361" d="M51 29v964q0 10 8.5 127t8.5 127v307q0 8 -4 21.5t-3 21.5q33 15 106 29t112 14q56 0 106.5 -42t86 -105.5t70 -137t60 -137t54.5 -105.5t55 -42q37 0 81 76t77.5 170t72.5 192t64 129q9 12 73.5 19.5t94.5 7.5q44 0 74.5 -15t45 -34.5t21.5 -55.5t7 -60q0 -5 1 -11 q0 -21 -2 -57q-2 -44 -2 -60q0 -102 -8 -313q-8 -256 -8 -545v-65v-49q0 -284 -11 -367q-33 -19 -205 -19q-9 0 -23.5 -4t-23.5 -4q-24 0 -38.5 4.5t-19.5 16.5t-6 20.5t1 28t2 28.5l25 906q0 2 8 11t8 21q0 39 -14 111q-21 -40 -43.5 -102.5t-40 -105.5t-44 -86.5t-68 -66 t-99.5 -22.5q-182 0 -322 326l-4 -850q-5 -33 -9 -70.5t-5 -56.5t-6 -41t-12.5 -31.5t-24 -18.5t-40.5 -11.5t-61 -2.5q-3 0 -47 -13q-25 -7 -46 -7q-16 0 -30 4l-32 -8q-21 21 -21 39z" />
<glyph unicode="N" horiz-adv-x="1157" d="M33 76q25 72 56.5 385t31.5 557q0 117 -20 292t-52 263q212 57 305 59q72 -89 145 -235.5t119 -272t103.5 -287.5t85.5 -229q3 9 3 45q0 26 -2 65q-4 95 -3 105q0 206 65 807q23 1 47 1q89 0 195 -9q1 -127 1 -246q0 -848 -44 -1245q-1 -12 -68 -52t-79 -40h-33 q-37 0 -130 190t-169 382.5t-123 328.5q-87 -958 -178 -958q-27 0 -130.5 16t-117.5 22z" />
<glyph unicode="O" horiz-adv-x="1157" d="M35 725q0 88 5.5 169.5t21 178.5t41.5 178.5t70.5 160t103 133t144 87.5t189.5 33q77 0 142.5 -26.5t113.5 -70t87.5 -106t65.5 -128t45.5 -141.5t30.5 -142t17 -135t8 -114t2 -85q0 -62 -4 -121.5t-17.5 -137t-36 -143.5t-63 -132.5t-93.5 -113t-133 -75.5t-177 -29 q-102 0 -186.5 29t-141.5 75.5t-100.5 112.5t-68.5 133t-40.5 145t-20.5 140t-5 125zM317 860q0 -16 3.5 -60t11.5 -123t26 -158t43 -152.5t67 -119.5t93 -46q35 0 65.5 9t53.5 22.5t43 37.5t34 45.5t26.5 55.5t19.5 58t15 63.5t11 61.5t9 61.5t8 54.5q-6 6 -6 33.5t6 168.5 q-2 27 -10 79t-29 137t-49.5 156.5t-76 124t-103.5 52.5q-59 0 -107.5 -55t-76 -131t-46 -161.5t-25 -140t-6.5 -73.5z" />
<glyph unicode="P" horiz-adv-x="874" d="M49 360q0 17 2.5 109.5t9 231t13.5 219.5l-8 36q28 146 30 344v37q0 173 -22 277q53 69 434 69q68 0 126.5 -28.5t97.5 -74t67.5 -101.5t41.5 -110.5t13 -102.5q0 -76 -14 -145t-47 -135t-83 -114.5t-128 -79.5t-176 -34q-36 -214 -36 -411q0 -143 19 -277 q-44 -25 -124 -46.5t-140 -21.5h-43q-1 32 -9 66t-16 103t-8 189zM416 930q53 8 95.5 31.5t67.5 54t41.5 67t22.5 67.5t6 58q0 33 -9 73.5t-27.5 83t-54.5 71t-83 28.5h-59q0 -33 8 -108t8 -136.5t-16 -107.5v-182z" />
<glyph unicode="Q" horiz-adv-x="1132" d="M20 596q0 52 3 109.5t11 136.5t21.5 154.5t37.5 159t54.5 156t76 139t100 113.5t128 75t158.5 28q75 0 138 -23.5t108 -61t81.5 -95t60 -114.5t41 -131.5t26 -134t13.5 -133.5t6 -119t1 -101q0 -136 -16 -246.5t-38.5 -173t-44.5 -104.5t-38 -62.5t-16 -24.5 q0 -12 35.5 -60t68.5 -85q-10 -24 -57 -75.5t-76 -51.5q-26 0 -50.5 26.5t-52.5 73t-44 64.5q-24 -5 -83.5 -19t-97.5 -22t-47 -8q-114 0 -204.5 38.5t-146 99.5t-92.5 143t-51 163t-14 166zM322 680q0 -42 5 -92.5t21.5 -116t41.5 -118t69.5 -88.5t101.5 -36q35 0 103 35 q-9 22 -32.5 77.5t-39.5 96.5t-27 78q101 56 142 64q66 -113 86 -181q49 202 49 273q0 23 -1 59.5t-6.5 109.5t-15 141.5t-28 145.5t-43 133.5t-63.5 94t-87 37.5q-60 0 -109.5 -64t-79 -155t-50.5 -195.5t-29 -181t-8 -117.5z" />
<glyph unicode="R" horiz-adv-x="890" d="M-8 1606q13 9 133.5 38t175.5 29q47 0 89 -2.5t96.5 -12t99.5 -24t90 -41.5t75.5 -62.5t50 -89t19.5 -118.5q0 -62 -21.5 -132.5t-75.5 -145t-132 -115.5q177 -541 358 -862q-1 -3 -38.5 -19.5t-86.5 -33.5t-73 -17q-9 0 -30.5 -7t-31.5 -7q-24 0 -52.5 48t-58 131 t-54.5 164t-54 178.5t-45 143.5l-29 -471q0 -60 -10 -97t-25.5 -55t-48.5 -25.5t-64.5 -8.5t-89.5 -4.5t-108 -12.5q-4 4 -13 9.5t-13 9.5q9 24 13 64t4 68q0 9 1 21q0 23 -1 59q-1 52 -1 66v187l16 559q-6 6 -7 36t-1 169q-7 35 -18.5 162t-38.5 221zM391 1370 q17 -187 17 -209q51 8 94 65t43 101q0 62 -82 62q-28 0 -72 -19z" />
<glyph unicode="S" horiz-adv-x="1097" d="M33 549v41q19 9 192 67q5 -13 18 -52.5t27.5 -79.5t35.5 -91t47.5 -94.5t58 -81t73 -59t86.5 -21.5q67 0 116 31.5t73 81.5t34.5 97.5t10.5 94.5q0 68 -18 118.5t-48.5 81t-70.5 52t-84 37t-87.5 31t-83.5 38.5t-70.5 54.5t-48.5 84.5t-18 124q0 64 15.5 136t49.5 145 t81.5 131.5t118.5 95.5t153 37q40 0 101 -18t124.5 -49.5t108.5 -83t45 -109.5q0 -8 -19.5 -47t-57 -107.5t-48.5 -89.5q-27 7 -41.5 40t-21 74.5t-17 82.5t-37 68.5t-71.5 27.5q-49 0 -95 -45.5t-74.5 -105.5t-45.5 -113t-17 -74q0 -42 18.5 -69t49.5 -40t71 -20.5 t85 -16.5t89.5 -22.5t84.5 -43.5t71 -74t49.5 -120t18.5 -176q0 -123 -49.5 -226t-132 -169t-185 -102.5t-211.5 -36.5q-86 0 -157 25.5t-119 70.5t-84 101t-56 121t-29 126t-9 121z" />
<glyph unicode="T" horiz-adv-x="1091" d="M8 1501q0 36 83 59.5t213 31.5t193 10t117 2h406q6 0 12 -2t9 -4t7 -1t7 7v-168q2 -12 -9.5 -48t-21.5 -36q-309 0 -350 2v-299q0 -8 -8 -121t-16.5 -354t-8.5 -560q-10 -5 -22.5 -9.5t-23 -7.5t-26.5 -5.5t-25.5 -4t-29.5 -2.5t-28 -1.5t-30.5 -1t-28.5 -0.5h-31h-29v12 q0 34 -4 95q-5 73 -5 75l58 950v217q-7 2 -26 2q-43 1 -145 -11q-146 -16 -153 -17h-35q-49 175 -49 190z" />
<glyph unicode="U" horiz-adv-x="1052" d="M23 864l24 754q39 0 123 1t88 1q23 0 66 -27l-33 -555v-471q0 -27 4 -61.5t17.5 -82t34.5 -85.5t60.5 -65t90.5 -27q35 0 64 22.5t49.5 59t37 89t26 107.5t16.5 120t10 120t5 114q1 44 1 76q-1 12 -1 20q0 36 -0.5 71t-0.5 36v209v50.5v50t-1 41t-2.5 48t-4.5 45t-7 56.5 q24 22 59.5 35t96 25.5t90.5 21.5l78 -766q0 -156 -17.5 -287.5t-61 -252.5t-111.5 -205t-175.5 -133.5t-247.5 -49.5q-80 0 -145 28t-106 72t-68.5 103t-39 117t-11.5 117v364q0 8 -3.5 39.5t-4.5 54.5z" />
<glyph unicode="V" horiz-adv-x="978" d="M25 1622q112 51 190 51q20 0 41 -37.5t41.5 -111t38.5 -151.5t38 -190.5t34 -194.5t32 -197t27 -166q74 181 160 524.5t98 513.5q23 0 98 9t82 9q15 0 21.5 -2.5t8.5 -4.5t6 -18t9 -28l-211 -1042q-32 -72 -53.5 -156.5t-29.5 -144t-26 -119t-45 -95.5t-84 -58.5 t-145 -22.5q-30 0 -51.5 62.5t-44.5 207t-47.5 319.5t-74.5 464.5t-113 578.5z" />
<glyph unicode="W" horiz-adv-x="978" d="M39 63v1547q132 32 209 32q22 -138 22 -223q0 -37 -4 -63l21 -711q19 33 33 77t22.5 74.5t23.5 59t42.5 43t72.5 14.5q31 0 62 -63.5t65 -162t51 -132.5l70 1020q0 2 6.5 37t1.5 55q36 12 89 23.5t69 11.5q20 0 34.5 -7.5t21.5 -16t10 -24t3.5 -22t0.5 -20.5l-58 -987 q0 -22 -1 -60.5t-4.5 -111.5t-11.5 -141t-20 -133t-32.5 -104.5t-46.5 -39.5q-9 0 -63 -4t-64 -4q-26 0 -54 79.5t-70 238t-75 251.5q-42 -104 -74.5 -210t-48 -169.5t-31.5 -116.5t-34.5 -75.5t-47.5 -22.5q-9 0 -63 -4t-64 -4q-38 0 -52 17q-12 15 -11 43v9z" />
<glyph unicode="X" horiz-adv-x="845" d="M18 1487q14 37 48 47q10 4 31 4t30 4q15 6 104 76q12 -15 38.5 -67t50.5 -104.5t46 -101.5t23 -51q18 -45 56.5 -139.5t55.5 -139t61.5 -164.5t107 -299t159.5 -460q-6 -6 -21 -15t-28.5 -15.5t-29.5 -14t-19 -8.5q-2 -1 -22.5 -9t-27.5 -9.5t-25.5 -6.5t-28.5 -2.5 t-24 7t-23.5 16.5t-16.5 31q-70 192 -83.5 226t-20.5 38q1 7 -1.5 24.5t-0.5 24.5q-373 934 -439 1108zM59 45q0 34 34 181.5t42 168.5q13 44 49.5 174.5t57.5 197t93 285t189 562.5q5 1 11 1q17 0 45 -6q38 -8 55 -14q2 -1 18 -5t21 -5.5t20 -6.5t21 -9.5t16.5 -11.5 t14.5 -15t8 -18q4 -8 4 -18q0 -14 -6 -33q-62 -192 -72 -228.5t-6 -44.5q-6 -6 -15 -20.5t-14 -18.5q-37 -125 -159 -544t-177 -601q-21 -12 -42 -12q-12 0 -25 4q-12 3 -29 16.5t-25 16.5q-9 2 -27 2.5t-49 0.5t-53 1z" />
<glyph unicode="Y" horiz-adv-x="952" d="M30 464q-1 3 -1 7q0 11 1 27q2 21 6.5 29.5t12.5 21.5t20.5 18t31 11t43.5 8t59 2q26 0 42 -40t27.5 -97t30.5 -114.5t63.5 -97.5t112.5 -40q32 0 57.5 12.5t41.5 30.5t27.5 48.5t17 54.5t8 62.5t2.5 58.5v54v23q0 135 -17 135q-1 0 -48 -16.5t-68 -16.5q-7 0 -31.5 -4 t-42.5 -4q-84 15 -147 52.5t-100 86t-60 114.5t-31 129t-8 138q0 14 3 78t9.5 158t13.5 153q26 2 102 12t132 11h25q0 -37 -8.5 -120.5t-8.5 -88.5q0 -2 -0.5 -34t0 -54.5t1.5 -64.5t4.5 -73t8.5 -71t14 -68t21.5 -54t30 -39t39.5 -13q34 0 58.5 42.5t33.5 104t12.5 98.5 t3.5 56t-47 283q72 17 185.5 37t130.5 20q15 0 24.5 -1.5t13 -5.5t4.5 -6.5t0 -10.5t-1 -11l41 -883q0 -98 -14.5 -184.5t-51 -169t-92.5 -141.5t-145 -95t-203 -36h-107q-67 0 -118.5 27t-81.5 68t-49.5 95.5t-26 102t-6.5 94.5q0 19 -0.5 48t-0.5 43z" />
<glyph unicode="Z" horiz-adv-x="794" d="M26 141q4 46 17 103q5 24 105.5 274.5t132.5 351.5q18 57 61 165.5t75.5 191t33.5 90.5v35q-46 4 -102 4h-52h-45q-40 0 -106.5 -1.5t-100.5 -2.5v309h133l508 41q39 0 67 -32.5t40.5 -82.5t17 -90.5t4.5 -75.5q0 -33 -176 -505t-229 -566q12 -14 51 -14q7 0 58 10.5 t117 23t105 15.5q0 -3 16.5 -125.5t16.5 -146.5q0 -39 -95 -63.5t-188 -30.5q-62 -4 -105 -4q-21 0 -38 1q-15 -9 -98.5 -22.5t-120.5 -13.5q-7 0 -31.5 4t-44.5 4q0 3 -5.5 12.5t-11 26t-9.5 42.5q-2 14 -2 33q-1 18 1 39z" />
<glyph unicode="[" />
<glyph unicode="\" />
<glyph unicode="]" />
<glyph unicode="^" />
<glyph unicode="_" />
<glyph unicode="`" />
<glyph unicode="a" horiz-adv-x="1167" d="M49 -25q3 14 21.5 127t44 255.5t61.5 322.5t81 347t95 309t110.5 227.5t121.5 85.5q60 0 114 -40t92.5 -104t71 -141.5t53 -155.5t34.5 -142t20 -104l6 -40q15 -82 56.5 -298.5t71.5 -377t30 -170.5v-35q-80 -34 -176.5 -47.5t-114.5 -18.5q-18 102 -27 327t-29 331 q-11 -13 -135 -72t-164 -59q-20 0 -74 -11t-67 -26q-15 -80 -92 -473q-26 0 -205 -17zM418 772h76h1q23 0 119 36q100 37 144 62q-11 96 -27 185.5t-47.5 180.5t-67.5 112q-49 -70 -83 -151t-48.5 -136.5t-34.5 -148.5t-32 -140z" />
<glyph unicode="b" horiz-adv-x="1064" d="M-2 1614q1 0 30.5 9t43 13t49.5 13.5t60 14.5t63.5 12.5t71.5 11.5t72 7t77 3q116 0 198 -74t82 -186q0 -197 -155 -305q147 -59 234.5 -110t138 -114.5t67.5 -133t17 -175.5q0 -78 -22.5 -159.5t-68.5 -157.5t-108.5 -136t-149.5 -96.5t-184 -36.5q-9 0 -55.5 -8 t-55.5 -8q-8 0 -71.5 11t-150.5 26t-134 22q11 53 33 344.5t22 487.5q0 181 -23 353.5t-45 258.5t-36 113zM315 1509q29 -148 45 -258q37 9 85.5 59.5t48.5 102.5q0 17 -22.5 56.5t-47.5 39.5h-109zM332 252q107 -19 137 -19q85 0 154.5 60t104 142t34.5 161q0 61 -21 111 t-54.5 82.5t-77.5 54.5t-88.5 31.5t-88.5 9.5q-34 0 -53 -19q-8 -276 -47 -614z" />
<glyph unicode="c" horiz-adv-x="927" d="M20 633q0 46 4 110t17.5 159t33.5 186.5t56.5 186t83 165t116 115t152.5 44.5q30 0 87 -19.5t115.5 -49.5t102 -73.5t43.5 -84.5q0 -17 -48.5 -152.5t-63.5 -160.5q-9 9 -31 50t-44.5 81.5t-54.5 74t-61 33.5q-49 0 -87.5 -47t-61 -124.5t-37.5 -158t-21 -167t-8 -130 t-2 -67.5q0 -17 7 -60.5t20.5 -99t40 -96.5t59.5 -41h56q44 0 94.5 53t81 108.5t35.5 80.5h36q3 -4 47 -58.5t80.5 -104t36.5 -62.5q0 -55 -48.5 -111t-111.5 -93q-63 -36 -123 -58q-45 -16 -69 -17q-8 0 -14 2q-18 0 -47.5 -4t-36.5 -4q-79 0 -144 21.5t-109 56.5t-78 85.5 t-53 102.5t-31 113t-16 111.5t-4 103.5z" />
<glyph unicode="d" horiz-adv-x="1044" d="M20 1532q47 17 129.5 34t133.5 17q116 0 223.5 -25t202.5 -77.5t165.5 -128t111 -182.5t40.5 -234q0 -457 -237.5 -693.5t-704.5 -236.5q-9 0 -16.5 2.5t-11.5 5.5l-3 2l6 1043zM322 1360l32 -1053q125 79 209 155t132 153.5t67.5 153.5t19.5 167q0 43 -8.5 95t-31.5 112 t-56.5 108.5t-89 80.5t-123.5 32q-9 0 -66 -2t-85 -2z" />
<glyph unicode="e" horiz-adv-x="921" d="M25 340l81 848q0 95 24 164.5t65 112.5t106.5 69t137.5 35.5t167 9.5q46 0 213 -18q27 -171 27 -270q0 -24 -2 -44q-24 2 -79 10t-99 14.5t-52 6.5q-50 0 -85 -6t-61 -13.5t-42.5 -31.5t-26.5 -42.5t-15 -64.5t-7 -80t-4 -106l2 -2q4 -4 12 -4h10q29 0 291 57 q3 -3 8 -39.5t10.5 -103.5t8.5 -140q-26 -16 -72 -24t-76.5 -9t-91.5 -1q-9 0 -30 4t-31 4q-27 0 -44 -11t-24.5 -33.5t-9.5 -43t-2 -53.5v-7q0 -32 0.5 -52.5t6 -58.5t15 -61.5t29.5 -42t49 -18.5q74 0 150 18.5t131.5 37t77.5 18.5q23 0 41 -22t28.5 -58.5t17 -73 t9.5 -77.5t3.5 -58.5t0.5 -28.5q-31 -14 -103 -31.5t-88 -17.5q-9 0 -75.5 -8t-75.5 -8h-119q-407 0 -407 354z" />
<glyph unicode="f" horiz-adv-x="829" d="M48 285v6q0 23 4 73q3 57 3 136v622q0 215 121 338t365 123q49 0 133 -17.5t145 -39.5q-1 -12 -9 -62q-6 -44 -6 -79v-9q1 -37 15 -69h-51l-29 15q-29 14 -79 28t-103 14q-243 0 -264 -305l8 -78q77 2 233 25q144 22 244 22h17q-3 -46 -16 -153t-17 -152 q-53 -6 -146 -17.5t-171 -19.5t-146 -12q-7 -98 -9.5 -334.5t-8.5 -282.5q-21 -4 -88.5 -19.5t-110.5 -23.5q-20 136 -26.5 192.5t-7.5 78.5z" />
<glyph unicode="g" horiz-adv-x="1163" d="M33 498q0 49 4.5 121t20 181.5t39 216t66.5 217.5t98.5 193.5t138.5 135.5t182 53q282 0 442 -305q-33 -54 -91 -129.5t-106 -126.5h-39q-3 9 -13.5 37t-32.5 74.5t-47 87.5t-58 71.5t-64 30.5q-36 0 -69.5 -65.5t-56 -158t-40 -190.5t-26 -163.5t-8.5 -76.5v-311 q0 -80 64.5 -151.5t140.5 -71.5q38 0 68 14t47.5 38.5t29.5 51t17 59t6.5 53t1.5 42.5v37q-4 1 -10 1q-18 0 -56 -12q-50 -16 -68 -16q-24 0 -45 61.5t-34 135.5t-15 78l539 221h53q40 -175 82 -287q-2 -16 -20 -27t-40 -16.5t-49.5 -16t-44.5 -24.5q18 -89 18 -163 q0 -19 -1 -37q-6 -88 -43 -155t-89.5 -114.5t-123.5 -77t-144.5 -43.5t-152.5 -14q-111 0 -195 28t-136 75t-84 117.5t-44 147t-12 173.5z" />
<glyph unicode="h" horiz-adv-x="1163" d="M16 1542q0 22 65 37.5t119.5 20t75.5 4.5q20 0 34 -22.5t23 -64.5t14 -89t7 -110.5t2.5 -113t0.5 -112t1 -93.5q2 -2 3.5 -5.5t2.5 -5t4.5 -2.5t10.5 -1t89 8t93 8q19 0 110.5 -17t135.5 -32q4 22 7.5 52.5t6 59.5t2.5 32v497q32 -3 57 -3t59 2.5t38 2.5q15 0 51 -6.5 t57 -13.5q23 -215 29.5 -760.5t15.5 -763.5q-40 -11 -79 -20t-99 -22t-104 -23q-20 41 -30.5 124t-11.5 141.5t-1 156.5v30v305q-23 9 -51.5 15t-49.5 9.5t-59.5 5t-53 1.5h-58.5h-50q-2 0 -32 -4.5t-57.5 -4.5t-37.5 9l-22 -647q0 -103 -27 -141h-266v51q0 19 16.5 283 t16.5 393q0 335 -11 536q-3 38 -14.5 107t-22 124t-10.5 62z" />
<glyph unicode="i" horiz-adv-x="364" d="M40 610q0 52 3 176.5t11 316.5t22 488q33 13 110 13h18.5h21.5t21.5 -1t22.5 -3.5t19 -6t18 -10.5t13 -15.5t9.5 -21t2.5 -28.5q-1 -49 -3 -122q-3 -95 -3 -125v-9q0 -22 6 -27q-4 -7 -8.5 -24t-8.5 -23q0 -1022 -2 -1192q-27 -27 -61 -27q-12 0 -32 7.5t-30 7.5 q-15 0 -122 -31q-10 32 -18.5 175.5t-8.5 182.5q0 55 -1 151q-1 64 -1 109q1 21 1 39z" />
<glyph unicode="j" horiz-adv-x="706" d="M18 649q0 28 31 45.5t72 22.5q37 5 71 5h6q37 -1 52 -5q23 -64 34 -162t24.5 -175.5t47.5 -121.5q11 13 18 30.5t9 43t3 42.5t0 49.5t-1 43.5q0 188 -22.5 442.5t-45 441.5t-22.5 212q0 27 14 46t34.5 27.5t51 13t57 4.5t59.5 0.5t52 2.5q22 -112 37 -275.5t28.5 -373.5 t24.5 -322q0 -82 1 -143t2.5 -90.5t2.5 -47t2 -25t1 -11.5q0 -57 -7 -108.5t-27 -105.5t-51.5 -93t-85 -64t-122.5 -25q-66 0 -122 25t-95 68.5t-67 102.5t-42 125.5t-16 139.5q-2 74 -4 123.5t-3.5 68t-1.5 23.5z" />
<glyph unicode="k" horiz-adv-x="927" d="M25 1554v52q26 9 79 17.5t70 8.5q67 0 102 -29.5t42 -82.5q5 -41 5 -85v-25q-1 -38 -1 -81v-45q1 -70 16 -117q55 69 88.5 141t41.5 120.5t19.5 93t28 71t61.5 41.5t125 15q44 0 69.5 -22t26.5 -64q0 -118 -84.5 -304t-185.5 -305q92 -74 148.5 -172.5t81 -196 t43.5 -192.5t56 -189t99 -159v-61q-26 11 -70 12h-19q-39 0 -94.5 -3t-94.5 -3h-19q-42 30 -69 92.5t-44 140t-36.5 159t-58.5 167.5t-97 147q0 -80 -10 -302q-6 -139 -7 -252q0 -68 3 -126q-17 -3 -54 -12t-66.5 -15.5t-39.5 -6.5h-114q-20 9 -20 61q0 3 -1 6q0 50 9 118 q9 72 9 87v852q0 46 -19 239.5t-19 208.5z" />
<glyph unicode="l" horiz-adv-x="825" d="M31 354l18 1231q39 -3 78 -3t92 2.5t55 2.5q14 0 66 -26l-8 -1076q2 -61 14.5 -102.5t29.5 -63.5t47 -33.5t53 -13.5t63 -2q16 0 90 13.5t123 27.5q13 -20 28 -115t15 -116q0 -36 -56.5 -59.5t-145 -31.5t-131.5 -10t-81 -2q-9 0 -26.5 8.5t-26.5 8.5q-123 0 -203 104 t-94 256z" />
<glyph unicode="m" horiz-adv-x="1361" d="M51 29v964q0 10 8.5 127t8.5 127v307q0 8 -4 21.5t-3 21.5q33 15 106 29t112 14q56 0 106.5 -42t86 -105.5t70 -137t60 -137t54.5 -105.5t55 -42q37 0 81 76t77.5 170t72.5 192t64 129q9 12 73.5 19.5t94.5 7.5q44 0 74.5 -15t45 -34.5t21.5 -55.5t7 -60q0 -5 1 -11 q0 -21 -2 -57q-2 -44 -2 -60q0 -102 -8 -313q-8 -256 -8 -545v-65v-49q0 -284 -11 -367q-33 -19 -205 -19q-9 0 -23.5 -4t-23.5 -4q-24 0 -38.5 4.5t-19.5 16.5t-6 20.5t1 28t2 28.5l25 906q0 2 8 11t8 21q0 39 -14 111q-21 -40 -43.5 -102.5t-40 -105.5t-44 -86.5t-68 -66 t-99.5 -22.5q-182 0 -322 326l-4 -850q-5 -33 -9 -70.5t-5 -56.5t-6 -41t-12.5 -31.5t-24 -18.5t-40.5 -11.5t-61 -2.5q-3 0 -47 -13q-25 -7 -46 -7q-16 0 -30 4l-32 -8q-21 21 -21 39z" />
<glyph unicode="n" horiz-adv-x="1157" d="M33 76q25 72 56.5 385t31.5 557q0 117 -20 292t-52 263q212 57 305 59q72 -89 145 -235.5t119 -272t103.5 -287.5t85.5 -229q3 9 3 45q0 26 -2 65q-4 95 -3 105q0 206 65 807q23 1 47 1q89 0 195 -9q1 -127 1 -246q0 -848 -44 -1245q-1 -12 -68 -52t-79 -40h-33 q-37 0 -130 190t-169 382.5t-123 328.5q-87 -958 -178 -958q-27 0 -130.5 16t-117.5 22z" />
<glyph unicode="o" horiz-adv-x="1157" d="M35 725q0 88 5.5 169.5t21 178.5t41.5 178.5t70.5 160t103 133t144 87.5t189.5 33q77 0 142.5 -26.5t113.5 -70t87.5 -106t65.5 -128t45.5 -141.5t30.5 -142t17 -135t8 -114t2 -85q0 -62 -4 -121.5t-17.5 -137t-36 -143.5t-63 -132.5t-93.5 -113t-133 -75.5t-177 -29 q-102 0 -186.5 29t-141.5 75.5t-100.5 112.5t-68.5 133t-40.5 145t-20.5 140t-5 125zM317 860q0 -16 3.5 -60t11.5 -123t26 -158t43 -152.5t67 -119.5t93 -46q35 0 65.5 9t53.5 22.5t43 37.5t34 45.5t26.5 55.5t19.5 58t15 63.5t11 61.5t9 61.5t8 54.5q-6 6 -6 33.5t6 168.5 q-2 27 -10 79t-29 137t-49.5 156.5t-76 124t-103.5 52.5q-59 0 -107.5 -55t-76 -131t-46 -161.5t-25 -140t-6.5 -73.5z" />
<glyph unicode="p" horiz-adv-x="874" d="M49 360q0 17 2.5 109.5t9 231t13.5 219.5l-8 36q27 146 30 344v37q0 173 -22 277q53 69 434 69q68 0 126.5 -28.5t97.5 -74t67.5 -101.5t41.5 -110.5t13 -102.5q0 -76 -14 -145t-47 -135t-83 -114.5t-128 -79.5t-176 -34q-36 -214 -36 -411q0 -143 19 -277 q-44 -25 -124 -46.5t-140 -21.5h-43q-1 32 -9 66t-16 103t-8 189zM416 930q53 8 95.5 31.5t67.5 54t41.5 67t22.5 67.5t6 58q0 33 -9 73.5t-27.5 83t-54.5 71t-83 28.5h-59q0 -33 8 -108t8 -136.5t-16 -107.5v-182z" />
<glyph unicode="q" horiz-adv-x="1132" d="M20 596q0 52 3 109.5t11 136.5t21.5 154.5t37.5 159t54.5 156t76 139t100 113.5t128 75t158.5 28q75 0 138 -23.5t108 -61t81.5 -95t60 -114.5t41 -131.5t26 -134t13.5 -133.5t6 -119t1 -101q0 -136 -16 -246.5t-38.5 -173t-44.5 -104.5t-38 -62.5t-16 -24.5 q0 -12 35.5 -60t68.5 -85q-10 -24 -57 -75.5t-76 -51.5q-26 0 -50.5 26.5t-52.5 73t-44 64.5q-24 -5 -83.5 -19t-97.5 -22t-47 -8q-114 0 -204.5 38.5t-146 99.5t-92.5 143t-51 163t-14 166zM322 680q0 -42 5 -92.5t21.5 -116t41.5 -118t69.5 -88.5t101.5 -36q35 0 103 35 q-9 22 -32.5 77.5t-39.5 96.5t-27 78q101 56 142 64q66 -113 86 -181q49 202 49 273q0 23 -1 59.5t-6.5 109.5t-15 141.5t-28 145.5t-43 133.5t-63.5 94t-87 37.5q-60 0 -109.5 -64t-79 -155t-50.5 -195.5t-29 -181t-8 -117.5z" />
<glyph unicode="r" horiz-adv-x="890" d="M-8 1606q13 9 133.5 38t175.5 29q47 0 89 -2.5t96.5 -12t99.5 -24t90 -41.5t75.5 -62.5t50 -89t19.5 -118.5q0 -62 -21.5 -132.5t-75.5 -145t-132 -115.5q177 -541 358 -862q-1 -3 -38.5 -19.5t-86.5 -33.5t-73 -17q-9 0 -30.5 -7t-31.5 -7q-24 0 -52.5 48t-58 131 t-54.5 164t-54 178.5t-45 143.5l-29 -471q0 -60 -10 -97t-25.5 -55t-48.5 -25.5t-64.5 -8.5t-89.5 -4.5t-108 -12.5q-4 4 -13 9.5t-13 9.5q9 24 13 64t4 68q0 9 1 21q0 23 -1 59q-1 52 -1 66v187l16 559q-6 6 -7 36t-1 169q-7 35 -18.5 162t-38.5 221zM391 1370 q17 -187 17 -209q51 8 94 65t43 101q0 62 -82 62q-28 0 -72 -19z" />
<glyph unicode="s" horiz-adv-x="1097" d="M33 549v41q19 9 192 67q5 -13 18 -52.5t27.5 -79.5t35.5 -91t47.5 -94.5t58 -81t73 -59t86.5 -21.5q67 0 116 31.5t73 81.5t34.5 97.5t10.5 94.5q0 68 -18 118.5t-48.5 81t-70.5 52t-84 37t-87.5 31t-83.5 38.5t-70.5 54.5t-48.5 84.5t-18 124q0 64 15.5 136t49.5 145 t81.5 131.5t118.5 95.5t153 37q40 0 101 -18t124.5 -49.5t108.5 -83t45 -109.5q0 -8 -19.5 -47t-57 -107.5t-48.5 -89.5q-27 7 -41.5 40t-21 74.5t-17 82.5t-37 68.5t-71.5 27.5q-49 0 -95 -45.5t-74.5 -105.5t-45.5 -113t-17 -74q0 -42 18.5 -69t49.5 -40t71 -20.5 t85 -16.5t89.5 -22.5t84.5 -43.5t71 -74t49.5 -120t18.5 -176q0 -123 -49.5 -226t-132 -169t-185 -102.5t-211.5 -36.5q-86 0 -157 25.5t-119 70.5t-84 101t-56 121t-29 126t-9 121z" />
<glyph unicode="t" horiz-adv-x="1091" d="M8 1501q0 36 83 59.5t213 31.5t193 10t117 2h406q6 0 12 -2t9 -4t7 -1t7 7v-168q2 -12 -9.5 -48t-21.5 -36q-309 0 -350 2v-299q0 -8 -8 -121t-16.5 -354t-8.5 -560q-10 -5 -22.5 -9.5t-23 -7.5t-26.5 -5.5t-25.5 -4t-29.5 -2.5t-28 -1.5t-30.5 -1t-28.5 -0.5h-31h-29v12 q0 34 -4 95q-5 73 -5 75l58 950v217q-7 2 -26 2q-43 1 -145 -11q-146 -16 -153 -17h-35q-49 175 -49 190z" />
<glyph unicode="u" horiz-adv-x="1052" d="M23 864l24 754q39 0 123 1t88 1q23 0 66 -27l-33 -555v-471q0 -27 4 -61.5t17.5 -82t34.5 -85.5t60.5 -65t90.5 -27q35 0 64 22.5t49.5 59t37 89t26 107.5t16.5 120t10 120t5 114q1 44 1 76q-1 12 -1 20q0 36 -0.5 71t-0.5 36v209v50.5v50t-1 41t-2.5 48t-4.5 45t-7 56.5 q24 22 59.5 35t96 25.5t90.5 21.5l78 -766q0 -156 -17.5 -287.5t-61 -252.5t-111.5 -205t-175.5 -133.5t-247.5 -49.5q-80 0 -145 28t-106 72t-68.5 103t-39 117t-11.5 117v364q0 8 -3.5 39.5t-4.5 54.5z" />
<glyph unicode="v" horiz-adv-x="978" d="M25 1622q112 51 190 51q20 0 41 -37.5t41.5 -111t38.5 -151.5t38 -190.5t34 -194.5t32 -197t27 -166q74 181 160 524.5t98 513.5q23 0 98 9t82 9q15 0 21.5 -2.5t8.5 -4.5t6 -18t9 -28l-211 -1042q-32 -72 -53.5 -156.5t-29.5 -144t-26 -119t-45 -95.5t-84 -58.5 t-145 -22.5q-30 0 -51.5 62.5t-44.5 207t-47.5 319.5t-74.5 464.5t-113 578.5z" />
<glyph unicode="w" horiz-adv-x="978" d="M39 63v1547q132 32 209 32q22 -138 22 -223q0 -37 -4 -63l21 -711q19 33 33 77t22.5 74.5t23.5 59t42.5 43t72.5 14.5q31 0 62 -63.5t65 -162t51 -132.5l70 1020q0 2 6.5 37t1.5 55q36 12 89 23.5t69 11.5q20 0 34.5 -7.5t21.5 -16t10 -24t3.5 -22t0.5 -20.5l-58 -987 q0 -22 -1 -60.5t-4.5 -111.5t-11.5 -141t-20 -133t-32.5 -104.5t-46.5 -39.5q-9 0 -63 -4t-64 -4q-26 0 -54 79.5t-70 238t-75 251.5q-42 -104 -74.5 -210t-48 -169.5t-31.5 -116.5t-34.5 -75.5t-47.5 -22.5q-9 0 -63 -4t-64 -4q-38 0 -52 17q-12 15 -11 43v9z" />
<glyph unicode="x" horiz-adv-x="845" d="M18 1487q14 37 48 47q10 4 31 4t30 4q15 6 104 76q12 -15 38.5 -67t50.5 -104.5t46 -101.5t23 -51q18 -45 56.5 -139.5t55.5 -139t61.5 -164.5t107 -299t159.5 -460q-6 -6 -21 -15t-28.5 -15.5t-29.5 -14t-19 -8.5q-2 -1 -22.5 -9t-27.5 -9.5t-25.5 -6.5t-28.5 -2.5 t-24 7t-23.5 16.5t-16.5 31q-70 192 -83.5 226t-20.5 38q1 7 -1.5 24.5t-0.5 24.5q-373 934 -439 1108zM59 45q0 34 34 181.5t42 168.5q13 44 49.5 174.5t57.5 197t93 285t189 562.5q5 1 11 1q17 0 45 -6q38 -8 55 -14q2 -1 18 -5t21 -5.5t20 -6.5t21 -9.5t16.5 -11.5 t14.5 -15t8 -18q4 -8 4 -18q0 -14 -6 -33q-62 -192 -72 -228.5t-6 -44.5q-6 -6 -15 -20.5t-14 -18.5q-37 -125 -159 -544t-177 -601q-21 -12 -42 -12q-12 0 -25 4q-12 3 -29 16.5t-25 16.5q-9 2 -27 2.5t-49 0.5t-53 1z" />
<glyph unicode="y" horiz-adv-x="952" d="M30 464q-1 3 -1 7q0 11 1 27q2 21 6.5 29.5t12.5 21.5t20.5 18t31 11t43.5 8t59 2q26 0 42 -40t27.5 -97t30.5 -114.5t63.5 -97.5t112.5 -40q32 0 57.5 12.5t41.5 30.5t27.5 48.5t17 54.5t8 62.5t2.5 58.5v54v23q0 135 -17 135q-1 0 -48 -16.5t-68 -16.5q-7 0 -31.5 -4 t-42.5 -4q-84 15 -147 52.5t-100 86t-60 114.5t-31 129t-8 138q0 14 3 78t9.5 158t13.5 153q26 2 102 12t132 11h25q0 -37 -8.5 -120.5t-8.5 -88.5q0 -2 -0.5 -34t0 -54.5t1.5 -64.5t4.5 -73t8.5 -71t14 -68t21.5 -54t30 -39t39.5 -13q34 0 58.5 42.5t33.5 104t12.5 98.5 t3.5 56t-47 283q72 17 185.5 37t130.5 20q15 0 24.5 -1.5t13 -5.5t4.5 -6.5t0 -10.5t-1 -11l41 -883q0 -98 -14.5 -184.5t-51 -169t-92.5 -141.5t-145 -95t-203 -36h-107q-67 0 -118.5 27t-81.5 68t-49.5 95.5t-26 102t-6.5 94.5q0 19 -0.5 48t-0.5 43z" />
<glyph unicode="z" horiz-adv-x="794" d="M26 141q4 46 17 103q5 24 105.5 274.5t132.5 351.5q18 57 61 165.5t75.5 191t33.5 90.5v35q-46 4 -102 4h-52h-45q-40 0 -106.5 -1.5t-100.5 -2.5v309h133l508 41q39 0 67 -32.5t40.5 -82.5t17 -90.5t4.5 -75.5q0 -33 -176 -505t-229 -566q12 -14 51 -14q7 0 58 10.5 t117 23t105 15.5q0 -3 16.5 -125.5t16.5 -146.5q0 -39 -95 -63.5t-188 -30.5q-62 -4 -105 -4q-21 0 -38 1q-15 -9 -98.5 -22.5t-120.5 -13.5q-7 0 -31.5 4t-44.5 4q0 3 -5.5 12.5t-11 26t-9.5 42.5q-2 14 -2 33q-1 18 1 39z" />
<glyph unicode="}" />
<glyph unicode="&#xe000;" horiz-adv-x="1617" d="M0 0v1618h1618v-1618h-1618z" />
</font>
</defs>
</svg>
